<?xml version="1.0" encoding="UTF-8"?>
<svg id="Layer_1" data-name="Layer 1" xmlns="http://www.w3.org/2000/svg" version="1.1" viewBox="0 0 135 131">
  <defs>
    <style>
      .cls-1 {
        fill: #8bb8ee;
      }

      .cls-1, .cls-2 {
        stroke-width: 0px;
      }

      .cls-2 {
        fill: #fff;
      }
    </style>
  </defs>
  <path class="cls-1" d="M67.5,131c37.3,0,67.5-29.3,67.5-65.5S104.8,0,67.5,0,0,29.3,0,65.5s30.2,65.5,67.5,65.5Z"/>
  <path class="cls-1" d="M67.5,131c37.3,0,67.5-29.3,67.5-65.5S104.8,0,67.5,0,0,29.3,0,65.5s30.2,65.5,67.5,65.5Z"/>
  <path class="cls-1" d="M67.5,131c37.3,0,67.5-29.3,67.5-65.5S104.8,0,67.5,0,0,29.3,0,65.5s30.2,65.5,67.5,65.5Z"/>
  <path class="cls-2" d="M48.9,70.9c1.5,0,2.6.8,3.2,2h4.2c-.9-3.6-3.8-5.7-7.3-5.7s-7.9,3.3-7.9,7.8,3.5,7.7,7.7,7.7,6.4-1.9,7.4-5.5h-4.2c-.7,1.1-1.7,1.8-3.1,1.8-2.1,0-3.9-1.7-3.9-4.1s1.7-4.1,3.9-4.1h0Z"/>
  <path class="cls-2" d="M65.5,67.2c-4.1,0-7.9,2.9-7.9,7.8s3.6,7.7,7.8,7.7,7.9-3,7.9-7.8-3.6-7.7-7.7-7.7ZM65.5,79.2c-2.3,0-3.9-1.9-3.9-4.2s1.6-4.2,3.9-4.2,3.7,1.9,3.7,4.2-1.4,4.2-3.7,4.2Z"/>
  <path class="cls-2" d="M89.8,66.4c0-1,.9-1.9,2-1.9s1.8.6,1.8.6l1.5-2.7s-1.3-1.3-3.6-1.3-5.5,2-5.5,5.1v1.2h-6v-.9c0-1,.9-1.9,2-1.9s1.8.6,1.8.6l1.5-2.7s-1.3-1.3-3.6-1.3-5.5,2-5.5,5.1v1.2h-2.6v3.2h2.6v12h3.9v-12h6v12h3.9v-12h4.4v-3.2h-4.4v-.9Z"/>
  <path class="cls-2" d="M101.9,67.2c-4,0-7.6,2.9-7.6,7.6s3.6,7.9,7.7,7.9,5.8-1.7,6.9-4.7h-3.9s-.9,1.3-3,1.3-3.5-.9-4-3.2h11.2c.5-6.2-3.5-8.9-7.4-8.9ZM98.4,73c.6-1.6,2-2.5,3.6-2.5s2.8.7,3.2,2.5h-6.9Z"/>
  <path class="cls-2" d="M118.3,67.2c-4,0-7.6,2.9-7.6,7.6s3.6,7.9,7.7,7.9,5.8-1.7,6.9-4.7h-3.9s-.9,1.3-3,1.3-3.5-.9-4-3.2h11.2c.5-6.2-3.5-8.9-7.4-8.9ZM114.8,73c.6-1.6,2-2.5,3.6-2.5s2.8.7,3.2,2.5h-6.9Z"/>
  <path class="cls-2" d="M11.7,45.7h-4.1v2.7c0,.7-.6,1.3-1.3,1.3h-1.4v3.5h2.7v6.7c0,3.2,2.7,5.3,5.7,5.3s1.4-.1,1.9-.3v-3.7c-.4.2-.9.4-1.5.4-1.2,0-2.1-.9-2.1-2v-6.4h3.6v-3.5h-3.6v-4Z"/>
  <path class="cls-2" d="M30.5,51.5c-.5-.5-1-1-1.8-1.3-.7-.3-1.5-.5-2.5-.5s-1.5.1-2.2.4c-.6.2-1.1.5-1.6,1-.1.1-.3,0-.3-.1v-7.9h-4.1v22.2h4.1v-8.9c0-.8.3-1.5.8-2.1.5-.6,1.2-.8,2-.8s1.7.3,2.1.9c.4.6.7,1.3.7,2.1v8.8h4.1v-9.5c0-.8-.1-1.6-.3-2.3-.2-.7-.6-1.4-1-1.9Z"/>
  <path class="cls-2" d="M39,50h-4.1v15.2h4.1v-15.2Z"/>
  <path class="cls-2" d="M46.2,56.5c0-.9.2-1.6.7-2.2.5-.6,1.2-.9,2.1-.9s1.7.3,2.1.9c.4.6.7,1.3.7,2.1v8.8h4.1v-9.5c0-.8-.1-1.6-.3-2.3-.2-.7-.6-1.4-1-1.9-.5-.5-1-1-1.7-1.3-.7-.3-1.5-.5-2.5-.5s-1.6.2-2.5.6c-.6.3-1.2.7-1.6,1.3-.1.1-.3,0-.3-.1v-1.3h-4v15.1h4.1v-8.7Z"/>
  <path class="cls-2" d="M63.2,57.2l1.7,2.3,4,5.8h5l-6.4-8.7,6.3-6.3h-5.4l-5.2,5.6v-12.7h-4.1v22.2h4.1v-8Z"/>
  <path class="cls-2" d="M129.7,78.9c-.4-.4-.9-.6-1.5-.6s-1.1.2-1.5.6c-.4.4-.6.9-.6,1.5s.2,1.1.6,1.5c.4.4.9.6,1.5.6s1.1-.2,1.5-.6c.4-.4.6-.9.6-1.5s-.2-1.1-.6-1.5Z"/>
</svg>