<?xml version="1.0" encoding="UTF-8"?>
<svg id="Layer_2" data-name="Layer 2" xmlns="http://www.w3.org/2000/svg" viewBox="0 0 270.63 56.29">
  <defs>
    <style>
      .cls-1 {
        fill: #fff;
        stroke-width: 0px;
      }
    </style>
  </defs>
  <g id="Background">
    <g>
      <path class="cls-1" d="M.94,23.57V.62h11.09v4.57h-6.13v4.51h5.64v4.28h-5.64v4.93h6.52v4.67H.94Z"/>
      <path class="cls-1" d="M25.25,23.57l-3.18-7.58-3.14,7.58h-5.41l5.64-12.03L13.97.62h5.41l2.82,6.97,2.85-6.97h5.32l-5.22,10.89,5.7,12.06h-5.61Z"/>
      <path class="cls-1" d="M47.13,7.81c0,1.27-.19,2.38-.58,3.31-.39.93-.91,1.7-1.56,2.3-.65.61-1.38,1.05-2.2,1.35-.82.29-1.65.44-2.5.44h-2.24v8.36h-5.09V.62h7.13c.82,0,1.65.12,2.48.36.83.24,1.59.63,2.27,1.18.68.55,1.23,1.29,1.65,2.22s.63,2.07.63,3.44ZM42.27,7.91c0-1.04-.25-1.78-.75-2.24-.5-.45-1.1-.68-1.81-.68h-1.65v6h1.65c.71,0,1.32-.26,1.81-.79.5-.53.75-1.29.75-2.29Z"/>
      <path class="cls-1" d="M49.89,23.57V.62h11.09v4.57h-6.13v4.51h5.64v4.28h-5.64v4.93h6.52v4.67h-11.48Z"/>
      <path class="cls-1" d="M73.99,23.57l-3.07-9.14h-1.52v9.14h-4.99V.62h7.34c2.22,0,3.95.58,5.17,1.73,1.23,1.16,1.84,2.88,1.84,5.17,0,.84-.1,1.6-.29,2.27-.19.67-.45,1.24-.76,1.72-.31.48-.66.86-1.05,1.17-.39.3-.77.52-1.13.65l3.91,10.24h-5.46ZM73.68,7.81c0-.58-.08-1.06-.24-1.43-.16-.37-.37-.66-.63-.88-.26-.22-.55-.36-.86-.44-.31-.08-.62-.11-.92-.11h-1.62v5.8h1.52c.73,0,1.38-.23,1.93-.7.55-.46.83-1.22.83-2.25Z"/>
      <path class="cls-1" d="M81.94,23.57V.62h5.22v22.95h-5.22Z"/>
      <path class="cls-1" d="M91.25,23.57V.62h11.09v4.57h-6.13v4.51h5.64v4.28h-5.64v4.93h6.52v4.67h-11.48Z"/>
      <path class="cls-1" d="M115.69,23.57l-5.32-13.97h-.1l.13,13.97h-4.64V.62h5.71l5.28,14.17h.1l-.1-14.17h4.47v22.95h-5.54Z"/>
      <path class="cls-1" d="M137.18,23.29c-1.02.59-2.31.89-3.89.89-1.34,0-2.56-.3-3.65-.89-1.09-.59-2.03-1.43-2.8-2.5-.78-1.07-1.38-2.34-1.81-3.82-.43-1.48-.65-3.11-.65-4.88s.22-3.44.65-4.93c.43-1.49,1.04-2.77,1.81-3.83.78-1.06,1.71-1.88,2.8-2.46,1.09-.58,2.31-.88,3.65-.88,1.53,0,2.81.28,3.84.83,1.03.55,1.85,1.24,2.48,2.06l-2.79,3.76c-.39-.52-.83-.93-1.31-1.23-.49-.3-1.1-.45-1.83-.45-.69,0-1.29.18-1.8.55-.51.37-.94.87-1.3,1.51-.36.64-.62,1.39-.79,2.27-.17.88-.26,1.81-.26,2.8s.09,1.92.26,2.79c.17.86.44,1.62.79,2.27.36.65.79,1.16,1.31,1.52.52.37,1.12.55,1.81.55s1.3-.17,1.82-.52c.52-.35.93-.76,1.23-1.23l2.89,3.6c-.63.89-1.45,1.63-2.46,2.22Z"/>
      <path class="cls-1" d="M141.91,23.57V.62h11.09v4.57h-6.13v4.51h5.64v4.28h-5.64v4.93h6.52v4.67h-11.48Z"/>
      <path class="cls-1" d="M179.61,12.03c0,1.81-.21,3.47-.62,4.98-.41,1.5-.99,2.78-1.75,3.84-.76,1.06-1.68,1.88-2.77,2.46-1.09.58-2.32.88-3.68.88s-2.59-.29-3.68-.88-2.02-1.4-2.77-2.46c-.76-1.06-1.34-2.34-1.75-3.84s-.62-3.16-.62-4.98.2-3.46.6-4.94c.4-1.48.98-2.74,1.73-3.79.76-1.05,1.68-1.86,2.77-2.43,1.09-.57,2.33-.86,3.71-.86s2.59.29,3.68.86c1.09.57,2.01,1.38,2.77,2.43.76,1.05,1.34,2.31,1.75,3.79.41,1.48.62,3.13.62,4.94ZM174.29,12.03c0-.99-.08-1.92-.23-2.77-.15-.85-.37-1.59-.66-2.22-.29-.63-.65-1.12-1.09-1.47-.43-.36-.94-.54-1.52-.54s-1.1.18-1.54.54c-.44.36-.81.85-1.1,1.47-.29.63-.51,1.37-.65,2.22-.14.85-.21,1.78-.21,2.77s.07,1.92.21,2.79c.14.86.36,1.61.65,2.24.29.63.66,1.12,1.1,1.49.44.37.96.55,1.54.55s1.09-.18,1.52-.55c.43-.37.79-.86,1.09-1.49.29-.63.51-1.37.66-2.24.15-.86.23-1.79.23-2.79Z"/>
      <path class="cls-1" d="M197.46,18.64c-.29,1.1-.75,2.06-1.38,2.89-.63.82-1.44,1.47-2.43,1.94-.99.48-2.19.71-3.6.71s-2.59-.24-3.57-.71c-.97-.48-1.77-1.12-2.38-1.94-.62-.82-1.06-1.78-1.33-2.89s-.4-2.29-.4-3.57V.62h5.22v14c0,.65.04,1.25.11,1.81.08.56.21,1.04.41,1.44.19.4.45.72.78.96s.75.36,1.26.36.94-.12,1.26-.36.58-.56.78-.96c.19-.4.33-.88.4-1.44.08-.56.11-1.17.11-1.81V.62h5.19v14.46c0,1.28-.15,2.46-.44,3.57Z"/>
      <path class="cls-1" d="M211.17,23.57l-3.07-9.14h-1.52v9.14h-4.99V.62h7.34c2.22,0,3.95.58,5.17,1.73,1.23,1.16,1.84,2.88,1.84,5.17,0,.84-.1,1.6-.29,2.27-.19.67-.45,1.24-.76,1.72-.31.48-.66.86-1.05,1.17-.39.3-.77.52-1.13.65l3.91,10.24h-5.46ZM210.86,7.81c0-.58-.08-1.06-.24-1.43-.16-.37-.37-.66-.63-.88-.26-.22-.55-.36-.86-.44-.31-.08-.62-.11-.92-.11h-1.62v5.8h1.52c.73,0,1.38-.23,1.93-.7.55-.46.83-1.22.83-2.25Z"/>
      <path class="cls-1" d="M12.8,55.4c-1.02.59-2.31.89-3.89.89-1.34,0-2.56-.3-3.65-.89-1.09-.59-2.03-1.43-2.8-2.5-.78-1.07-1.38-2.34-1.81-3.82-.43-1.48-.65-3.11-.65-4.88s.22-3.44.65-4.93c.43-1.49,1.04-2.77,1.81-3.83.78-1.06,1.71-1.88,2.8-2.46,1.09-.58,2.31-.88,3.65-.88,1.53,0,2.81.28,3.84.83,1.03.55,1.85,1.24,2.48,2.06l-2.79,3.76c-.39-.52-.83-.93-1.31-1.23-.49-.3-1.1-.45-1.83-.45-.69,0-1.29.18-1.8.55-.51.37-.94.87-1.3,1.51-.36.64-.62,1.39-.79,2.27-.17.88-.26,1.81-.26,2.8s.09,1.92.26,2.79c.17.86.44,1.62.79,2.27.36.65.79,1.16,1.31,1.52.52.37,1.12.55,1.81.55s1.3-.17,1.82-.52c.52-.35.93-.76,1.23-1.23l2.89,3.6c-.63.89-1.45,1.63-2.46,2.22Z"/>
      <path class="cls-1" d="M27.33,55.68l-.94-4.18h-5.15l-.94,4.18h-5.19l5.58-22.95h6.52l5.54,22.95h-5.41ZM23.89,37.72h-.13l-1.94,9.76h3.92l-1.85-9.76Z"/>
      <path class="cls-1" d="M39.97,37.4v4.7h5.48v4.44h-5.45v9.14h-5.25v-22.95h11.18v4.67h-5.96Z"/>
      <path class="cls-1" d="M48.75,55.68v-22.95h11.09v4.57h-6.13v4.51h5.64v4.28h-5.64v4.93h6.52v4.67h-11.48Z"/>
      <path class="cls-1" d="M63.86,32.73h3.79l-2.04,8.36h-3.37l1.62-8.36Z"/>
      <path class="cls-1" d="M80.19,38.21c-.39-.45-.84-.8-1.36-1.05s-1.06-.37-1.62-.37-1.11.18-1.57.55c-.46.37-.7.97-.7,1.82,0,.71.24,1.27.71,1.67.48.4,1.18.84,2.11,1.31.52.26,1.07.57,1.65.93.58.36,1.1.79,1.58,1.31.48.52.88,1.14,1.19,1.87.31.73.47,1.59.47,2.58,0,1.23-.2,2.32-.59,3.26-.39.94-.92,1.72-1.58,2.34s-1.43,1.08-2.3,1.4c-.87.31-1.77.47-2.7.47-1.38,0-2.64-.26-3.78-.78-1.13-.52-2.05-1.12-2.74-1.82l2.66-3.89c.5.52,1.07.94,1.72,1.25.65.31,1.31.47,1.98.47.63,0,1.16-.21,1.59-.62.43-.41.65-.98.65-1.72s-.26-1.36-.78-1.8c-.52-.44-1.28-.91-2.27-1.41-.63-.3-1.22-.64-1.77-1-.55-.37-1.04-.81-1.46-1.33s-.75-1.12-.99-1.82c-.24-.69-.36-1.51-.36-2.46,0-1.27.21-2.37.63-3.29s.97-1.67,1.65-2.25,1.44-1.02,2.27-1.3c.83-.28,1.67-.42,2.51-.42,1.25,0,2.38.2,3.37.61.99.41,1.83.97,2.5,1.67l-2.69,3.81Z"/>
      <path class="cls-1" d="M101.62,38.21c-.39-.45-.84-.8-1.36-1.05s-1.06-.37-1.62-.37-1.11.18-1.57.55c-.46.37-.7.97-.7,1.82,0,.71.24,1.27.71,1.67.48.4,1.18.84,2.11,1.31.52.26,1.07.57,1.65.93.58.36,1.1.79,1.58,1.31.48.52.88,1.14,1.19,1.87.31.73.47,1.59.47,2.58,0,1.23-.2,2.32-.59,3.26-.39.94-.92,1.72-1.58,2.34s-1.43,1.08-2.3,1.4c-.87.31-1.77.47-2.7.47-1.38,0-2.64-.26-3.78-.78-1.13-.52-2.05-1.12-2.74-1.82l2.66-3.89c.5.52,1.07.94,1.72,1.25.65.31,1.31.47,1.98.47.63,0,1.16-.21,1.59-.62.43-.41.65-.98.65-1.72s-.26-1.36-.78-1.8c-.52-.44-1.28-.91-2.27-1.41-.63-.3-1.22-.64-1.77-1-.55-.37-1.04-.81-1.46-1.33s-.75-1.12-.99-1.82c-.24-.69-.36-1.51-.36-2.46,0-1.27.21-2.37.63-3.29s.97-1.67,1.65-2.25,1.44-1.02,2.27-1.3c.83-.28,1.67-.42,2.51-.42,1.25,0,2.38.2,3.37.61.99.41,1.83.97,2.5,1.67l-2.69,3.81Z"/>
      <path class="cls-1" d="M123.76,44.14c0,1.81-.21,3.47-.62,4.98-.41,1.5-.99,2.78-1.75,3.84-.76,1.06-1.68,1.88-2.77,2.46-1.09.58-2.32.88-3.68.88s-2.59-.29-3.68-.88-2.02-1.4-2.77-2.46c-.76-1.06-1.34-2.34-1.75-3.84s-.62-3.16-.62-4.98.2-3.46.6-4.94c.4-1.48.98-2.74,1.73-3.79.76-1.05,1.68-1.86,2.77-2.43,1.09-.57,2.33-.86,3.71-.86s2.59.29,3.68.86c1.09.57,2.01,1.38,2.77,2.43.76,1.05,1.34,2.31,1.75,3.79.41,1.48.62,3.13.62,4.94ZM118.44,44.14c0-.99-.08-1.92-.23-2.77-.15-.85-.37-1.59-.66-2.22-.29-.63-.65-1.12-1.09-1.47-.43-.36-.94-.54-1.52-.54s-1.1.18-1.54.54c-.44.36-.81.85-1.1,1.47-.29.63-.51,1.37-.65,2.22-.14.85-.21,1.78-.21,2.77s.07,1.92.21,2.79c.14.86.36,1.61.65,2.24.29.63.66,1.12,1.1,1.49.44.37.96.55,1.54.55s1.09-.18,1.52-.55c.43-.37.79-.86,1.09-1.49.29-.63.51-1.37.66-2.24.15-.86.23-1.79.23-2.79Z"/>
      <path class="cls-1" d="M141.6,50.75c-.29,1.1-.75,2.06-1.38,2.89-.63.82-1.44,1.47-2.43,1.94-.99.48-2.19.71-3.6.71s-2.59-.24-3.57-.71c-.97-.48-1.77-1.12-2.38-1.94-.62-.82-1.06-1.78-1.33-2.89s-.4-2.29-.4-3.57v-14.46h5.22v14c0,.65.04,1.25.11,1.81.08.56.21,1.04.41,1.44.19.4.45.72.78.96s.75.36,1.26.36.94-.12,1.26-.36.58-.56.78-.96c.19-.4.33-.88.4-1.44.08-.56.11-1.17.11-1.81v-14h5.19v14.46c0,1.28-.15,2.46-.44,3.57Z"/>
      <path class="cls-1" d="M155.66,55.68l-5.32-13.97h-.1l.13,13.97h-4.64v-22.95h5.71l5.28,14.17h.1l-.1-14.17h4.47v22.95h-5.54Z"/>
      <path class="cls-1" d="M181.26,44.27c0,1.73-.19,3.3-.57,4.7-.38,1.41-.96,2.6-1.73,3.6-.78.99-1.77,1.76-2.97,2.3-1.2.54-2.62.81-4.26.81h-6.45v-22.95h6.45c1.64,0,3.06.27,4.26.81,1.2.54,2.19,1.31,2.97,2.32.78,1,1.36,2.22,1.73,3.63.38,1.42.57,3.01.57,4.78ZM176.04,44.27c0-2.31-.39-4.06-1.18-5.23-.79-1.18-1.81-1.77-3.06-1.77h-1.26v13.87h1.26c1.25,0,2.27-.59,3.06-1.77.79-1.18,1.18-2.88,1.18-5.11Z"/>
      <path class="cls-1" d="M193.91,38.21c-.39-.45-.84-.8-1.36-1.05s-1.06-.37-1.62-.37-1.11.18-1.57.55c-.46.37-.7.97-.7,1.82,0,.71.24,1.27.71,1.67.48.4,1.18.84,2.11,1.31.52.26,1.07.57,1.65.93.58.36,1.1.79,1.58,1.31.48.52.88,1.14,1.19,1.87.31.73.47,1.59.47,2.58,0,1.23-.2,2.32-.59,3.26-.39.94-.92,1.72-1.58,2.34s-1.43,1.08-2.3,1.4c-.87.31-1.77.47-2.7.47-1.38,0-2.64-.26-3.78-.78-1.13-.52-2.05-1.12-2.74-1.82l2.66-3.89c.5.52,1.07.94,1.72,1.25.65.31,1.31.47,1.98.47.63,0,1.16-.21,1.59-.62.43-.41.65-.98.65-1.72s-.26-1.36-.78-1.8c-.52-.44-1.28-.91-2.27-1.41-.63-.3-1.22-.64-1.77-1-.55-.37-1.04-.81-1.46-1.33s-.75-1.12-.99-1.82c-.24-.69-.36-1.51-.36-2.46,0-1.27.21-2.37.63-3.29s.97-1.67,1.65-2.25,1.44-1.02,2.27-1.3c.83-.28,1.67-.42,2.51-.42,1.25,0,2.38.2,3.37.61.99.41,1.83.97,2.5,1.67l-2.69,3.81Z"/>
      <path class="cls-1" d="M211.22,55.4c-1.02.59-2.31.89-3.89.89-1.34,0-2.56-.3-3.65-.89-1.09-.59-2.03-1.43-2.8-2.5-.78-1.07-1.38-2.34-1.81-3.82-.43-1.48-.65-3.11-.65-4.88s.22-3.44.65-4.93c.43-1.49,1.04-2.77,1.81-3.83.78-1.06,1.71-1.88,2.8-2.46,1.09-.58,2.31-.88,3.65-.88,1.53,0,2.81.28,3.84.83,1.03.55,1.85,1.24,2.48,2.06l-2.79,3.76c-.39-.52-.83-.93-1.31-1.23-.49-.3-1.1-.45-1.83-.45-.69,0-1.29.18-1.8.55-.51.37-.94.87-1.3,1.51-.36.64-.62,1.39-.79,2.27-.17.88-.26,1.81-.26,2.8s.09,1.92.26,2.79c.17.86.44,1.62.79,2.27.36.65.79,1.16,1.31,1.52.52.37,1.12.55,1.81.55s1.3-.17,1.82-.52c.52-.35.93-.76,1.23-1.23l2.89,3.6c-.63.89-1.45,1.63-2.46,2.22Z"/>
      <path class="cls-1" d="M225.74,55.68l-.94-4.18h-5.15l-.94,4.18h-5.19l5.58-22.95h6.52l5.54,22.95h-5.41ZM222.3,37.72h-.13l-1.94,9.76h3.92l-1.85-9.76Z"/>
      <path class="cls-1" d="M247.33,39.92c0,1.27-.19,2.38-.58,3.31-.39.93-.91,1.7-1.56,2.3-.65.61-1.38,1.05-2.2,1.35-.82.29-1.65.44-2.5.44h-2.24v8.36h-5.09v-22.95h7.13c.82,0,1.65.12,2.48.36.83.24,1.59.63,2.27,1.18.68.55,1.23,1.29,1.65,2.22s.63,2.07.63,3.44ZM242.46,40.02c0-1.04-.25-1.78-.75-2.24-.5-.45-1.1-.68-1.81-.68h-1.65v6h1.65c.71,0,1.32-.26,1.81-.79.5-.53.75-1.29.75-2.29Z"/>
      <path class="cls-1" d="M250.08,55.68v-22.95h11.09v4.57h-6.13v4.51h5.64v4.28h-5.64v4.93h6.52v4.67h-11.48Z"/>
      <path class="cls-1" d="M270.63,53.05c0,.82-.25,1.51-.76,2.07-.51.56-1.17.84-1.99.84s-1.45-.28-1.96-.84c-.51-.56-.76-1.25-.76-2.07s.25-1.49.76-2.07c.51-.58,1.16-.88,1.96-.88s1.49.29,1.99.88c.51.58.76,1.28.76,2.07ZM265.38,47.87v-15.14h5.02v15.14h-5.02Z"/>
    </g>
  </g>
</svg>