<?xml version="1.0" encoding="UTF-8"?><svg id="Layer_2" xmlns="http://www.w3.org/2000/svg" viewBox="0 0 51.76 50.28"><defs><style>.cls-1{fill:none;stroke:#000;stroke-miterlimit:10;stroke-width:1.01px;}.cls-2{fill:#000;stroke-width:0px;}</style></defs><g id="Cream"><path class="cls-2" d="M45.59,26.81h-4.08l-1.85,4.52h5.49c1.15,0,2.09.94,2.09,2.09s-.94,2.09-2.09,2.09h-7.24l-1.92,4.52h9.59c3.41,0,6.17-2.76,6.17-6.17v-.88c0-3.41-2.76-6.17-6.17-6.17Z"/><polygon class="cls-1" points="31.95 49.77 10.15 49.77 .54 26.81 .51 22.66 41.66 22.66 41.55 26.82 31.95 49.77"/><line class="cls-1" x1="41.52" y1="26.81" x2=".54" y2="26.81"/><path class="cls-2" d="M36.28,17.2h0c0-4.11-3.33-7.43-7.43-7.43h0s-.07,0-.1,0c-.91-.13-1.71-.31-2.4-.51C16.45,6.27,24.28.2,24.28.2c0,0-7.83-1.92-7.83,6.07h0c0,1.94-1.57,3.5-3.5,3.5h-.53c-2.72,0-4.92,2.2-4.92,4.92v1.08c0,1.72-1.4,3.12-3.12,3.12h0c-2.14,0-3.87,1.73-3.87,3.87l41.15-.1c0-1.96-1.73-3.77-3.69-3.77h0c-.93,0-1.68-.75-1.68-1.68Z"/><line class="cls-1" x1="34.53" y1="43.61" x2="7.21" y2="43.61"/></g></svg>