<?xml version="1.0" encoding="UTF-8"?><svg id="Layer_2" xmlns="http://www.w3.org/2000/svg" viewBox="0 0 67.89 105"><defs><style>.cls-1{fill:none;stroke:#000;stroke-miterlimit:10;}</style></defs><g id="Coffee_Bean_Pour"><ellipse class="cls-1" cx="34.04" cy="62.54" rx="7.75" ry="5.45" transform="translate(-37.08 59.08) rotate(-58.66)"/><path class="cls-1" d="M38.07,55.92l-.32,2.31c-.29,2.06-1.59,3.85-3.48,4.73h0c-1.41.66-2.52,1.84-3.1,3.28l-.84,2.99"/><ellipse class="cls-1" cx="59.81" cy="20.5" rx="5.45" ry="7.75" transform="translate(-1.93 34.1) rotate(-31.34)"/><path class="cls-1" d="M55.78,13.88l.32,2.31c.29,2.06,1.59,3.85,3.48,4.73h0c1.41.66,2.52,1.84,3.1,3.28l.84,2.99"/><ellipse class="cls-1" cx="59.65" cy="47.59" rx="5.45" ry="7.75"/><path class="cls-1" d="M59.65,39.84l.93,2.14c.83,1.91.64,4.11-.51,5.85h0c-.86,1.3-1.19,2.88-.94,4.42l.84,2.99"/><ellipse class="cls-1" cx="34.04" cy="89.64" rx="5.45" ry="7.75"/><path class="cls-1" d="M34.04,81.89l.93,2.14c.83,1.91.64,4.11-.51,5.85h0c-.86,1.3-1.19,2.88-.94,4.42l.84,2.99"/><ellipse class="cls-1" cx="59.65" cy="72.19" rx="7.75" ry="5.45"/><path class="cls-1" d="M67.39,72.19l-2.14.93c-1.91.83-4.11.64-5.85-.51h0c-1.3-.86-2.88-1.19-4.42-.94l-2.99.84"/><ellipse class="cls-1" cx="59.81" cy="97.29" rx="7.75" ry="5.45" transform="translate(-54.4 97.76) rotate(-58.66)"/><path class="cls-1" d="M63.84,90.68l-.32,2.31c-.29,2.06-1.59,3.85-3.48,4.73h0c-1.41.66-2.52,1.84-3.1,3.28l-.84,2.99"/><ellipse class="cls-1" cx="8.09" cy="97.29" rx="5.45" ry="7.75" transform="translate(-49.43 18.41) rotate(-31.34)"/><path class="cls-1" d="M4.06,90.68l.32,2.31c.29,2.06,1.59,3.85,3.48,4.73h0c1.41.66,2.52,1.84,3.1,3.28l.84,2.99"/><ellipse class="cls-1" cx="8.09" cy="20.5" rx="7.75" ry="5.45" transform="translate(-13.62 16.74) rotate(-58.66)"/><path class="cls-1" d="M12.12,13.88l-.32,2.31c-.29,2.06-1.59,3.85-3.48,4.73h0c-1.41.66-2.52,1.84-3.1,3.28l-.84,2.99"/><ellipse class="cls-1" cx="8.25" cy="47.59" rx="5.45" ry="7.75"/><path class="cls-1" d="M8.25,39.84l-.93,2.14c-.83,1.91-.64,4.11.51,5.85h0c.86,1.3,1.19,2.88.94,4.42l-.84,2.99"/><ellipse class="cls-1" cx="8.25" cy="72.19" rx="7.75" ry="5.45"/><path class="cls-1" d="M.5,72.19l2.14.93c1.91.83,4.11.64,5.85-.51h0c1.3-.86,2.88-1.19,4.42-.94l2.99.84"/><ellipse class="cls-1" cx="34.2" cy="36.09" rx="5.45" ry="7.75" transform="translate(-13.78 23.06) rotate(-31.34)"/><path class="cls-1" d="M30.17,29.48l.32,2.31c.29,2.06,1.59,3.85,3.48,4.73h0c1.41.66,2.52,1.84,3.1,3.28l.84,2.99"/><ellipse class="cls-1" cx="34.8" cy="8.25" rx="5.45" ry="7.75"/><path class="cls-1" d="M34.8.5l.93,2.14c.83,1.91.64,4.11-.51,5.85h0c-.86,1.3-1.19,2.88-.94,4.42l.84,2.99"/></g></svg>