<?xml version="1.0" encoding="UTF-8"?>
<svg id="Layer_2" data-name="Layer 2" xmlns="http://www.w3.org/2000/svg" version="1.1" viewBox="0 0 124.2 87.9">
  <defs>
    <style>
      .cls-1, .cls-2 {
        stroke: #000;
        stroke-miterlimit: 10;
      }

      .cls-1, .cls-3 {
        fill: #fff;
      }

      .cls-4 {
        fill: #000;
      }

      .cls-4, .cls-3 {
        stroke-width: 0px;
      }

      .cls-2 {
        fill: none;
      }
    </style>
  </defs>
  <g id="Table_Chair" data-name="Table Chair">
    <line class="cls-2" x1="89.6" y1="56.3" x2="74.9" y2="87.4"/>
    <path class="cls-3" d="M114,49.3l9.7-34.8c1.7-6.1-1.9-12.4-7.9-14.1h0c-6.1-1.7-12.4,1.9-14.1,7.9l-11.5,41.2"/>
    <rect class="cls-1" x="80.3" y="49.3" width="36.6" height="7"/>
    <line class="cls-2" x1="106.2" y1="56.3" x2="120.9" y2="87.4"/>
    <path class="cls-4" d="M5.6,31.9h68.3c3.1,0,5.6,2.5,5.6,5.6H0c0-3.1,2.5-5.6,5.6-5.6Z"/>
    <path class="cls-1" d="M25.1,37.5h27.6c0,4.7-3.8,8.5-8.5,8.5h-10.7c-4.7,0-8.5-3.8-8.5-8.5h0Z"/>
    <line class="cls-2" x1="38.9" y1="46" x2="38.9" y2="82"/>
    <path class="cls-1" d="M23.7,85.6c0,.3-.3,1.4-.3,1.8h31.2c0-2.9-2.3-5.2-5.2-5.2h-16.2l-4.7.2c-2.1.1-3.9,1.3-4.8,3.2h0Z"/>
  </g>
</svg>