<?xml version="1.0" encoding="UTF-8"?>
<svg id="Layer_2" data-name="Layer 2" xmlns="http://www.w3.org/2000/svg" version="1.1" viewBox="0 0 138.9 148.1">
  <defs>
    <style>
      .cls-1 {
        fill: #fff;
      }

      .cls-1, .cls-2, .cls-3, .cls-4 {
        stroke: #000;
        stroke-miterlimit: 10;
      }

      .cls-2 {
        stroke-width: .9px;
      }

      .cls-2, .cls-3, .cls-4 {
        fill: none;
      }

      .cls-5 {
        fill: #000;
        stroke-width: 0px;
      }

      .cls-4 {
        stroke-width: .8px;
      }
    </style>
  </defs>
  <g id="People_Chatter" data-name="People Chatter">
    <path class="cls-5" d="M99.8,148.1h-9.9c0-2.5,2-4.5,4.5-4.5h7.7v2.2c0,1.3-1,2.3-2.3,2.3Z"/>
    <path class="cls-5" d="M129.1,148.1h-9.9c0-2.5,2-4.5,4.5-4.5h7.7v2.2c0,1.3-1,2.3-2.3,2.3Z"/>
    <path class="cls-1" d="M103.7,92.1c-5.8,36.3-10.9,51.4-10.9,51.4h15.4c4.5-9,6.9-17.4,8.2-24.2l.5,2.7,5.6,21.5h15.8s-3.3-18-8.1-53.9l-26.5,2.5h0Z"/>
    <path class="cls-1" d="M125.6,32.8s12.3,10.9,8.8,56.5l-35.1,3.3s1.1-39.3,9.6-62.8c5.5-1.7,12.2-.6,16.6,3Z"/>
    <path class="cls-1" d="M86.4,90.3c-.8-6.3-2.2-12.5-4.1-18.6-1.9-6.1-1.3-12-2.3-18.2-.7-4.7-2.9-9-6.1-12.5-2.8-3.1-7-6.8-11.4-5.7-2,.5-3.9,1.6-5.4,2.9-1.4,1.2-3.4,3.2-5.5,5.8-2.7,3.4-5.4,8-6.8,13.4-1,4.2,2.2,8.2,6.4,8.2h2.7l-.8,11.5v40h34c0-.2,0-.4,0-.6.7-8.7.3-17.5-.8-26.2h0Z"/>
    <path class="cls-3" d="M27.7,11.8l7,11.3c.5.9.2,2-.7,2.5l-2.2,1.1c-.5.2-.7.8-.5,1.3l1.2,3.2c.6,1.6-.7,3.2-2.4,3l-9.1-1"/>
    <line class="cls-3" x1="25.4" y1="33.7" x2="24.1" y2="39.7"/>
    <line class="cls-3" x1="15.6" y1="32.3" x2="14.4" y2="38.1"/>
    <path class="cls-5" d="M29.8,15.1l2.9-2.6c2.4-2.1,2.9-5.6,1.1-8.3l-.8-1.2C28-3.2,15,1,14.7,7.7h0c0,2.5-.4,4.4-2.3,5.6l-1.7,1.1c-2.2,1.4-3,4.2-2,6.6l1.2,2.9c.5,1.1.1,2.4-.9,3.1l-2.1,1.5s4.8,5.1,10.9,2.9c0,0,3.3-1.4,2.8-4.1-.3-1.8-3.8-3.8-3.4-5.6.4-1.6,3.1-2.2,3.4-3.6.5-2.5-3.4-3.1-.4-6.2,0,0,5.1-3.8,8.1.7l1.5,2.6h0Z"/>
    <polyline class="cls-1" points="13 86.1 31.5 135 37.7 135 29.1 88.3"/>
    <polygon class="cls-1" points="5.5 85.2 11.8 135 18.7 135 19.4 103.1 13 86.1 5.5 85.2"/>
    <path class="cls-5" d="M31.5,135h7.7c2.5,0,4.5,2,4.5,4.5h-9.9c-1.3,0-2.3-1-2.3-2.3v-2.2h0Z"/>
    <path class="cls-5" d="M11.9,135h7.7c2.5,0,4.5,2,4.5,4.5h-9.9c-1.3,0-2.3-1-2.3-2.3v-2.2h0Z"/>
    <path class="cls-2" d="M55.4,12.9l-3.5,6c-.8,1.3-.2,2.9,1.3,3.6h0c.9.5,1.4,1.4,1.1,2.3l-.5,1.5c-.7,2.1.4,4.3,2.7,5.5h0c.7.4,1.5.5,2.4.5h5.8"/>
    <path class="cls-5" d="M89.4,47.4c-4.7-10.8-20.8-26-20.8-26-1.9-2.5.5-6.3-3-9.8-3.5-3.5-7.9-4.9-9.8-3s-.5,6.3,3,9.8c1.4,1.4,3,2.5,4.4,3.1,1,.4,1.6,1.4,1.6,2.4,0,7.7.5,21.7,5.1,32.1,6.6,15,13.6,19,18.9,16.7s7.1-10.2.6-25.2h0Z"/>
    <polygon class="cls-1" points="82.5 117.1 81.8 135 74.1 135 71.4 117.1 82.5 117.1"/>
    <path class="cls-4" d="M109,6.6c-.8.8-1.8,2-2.2,3l-5.4,11.4c-.4.8-.1,1.9.7,2.3h0c1.1.6,1.8,1.7,1.8,3h0c0,2.2,2,3.9,4.2,3.6l5.4-.6"/>
    <path class="cls-5" d="M109,6.6c-.8-1.8,0-4.8,2-5.3l2.7-.8c2.2-.6,4.6-.1,6.4,1.4l5.5,4.4c1.5,1.2,2.2,3.1,1.9,5h0c-.5,2.8.2,5.7,1.8,8.1l.7,1c1.3,1.9,1.7,4.4,1,6.6h0c-.8,2.5-2.5,4.5-4.8,5.6h0c-3.1,1.5-6.8,1.1-9.6-.9l-3.1-2.4-.4-.5c-1.5-1.7-2-4.1-1.2-6.2h0l3.1-5.4c.4-.7-.1-1.6-.9-1.6h0c-1.1,0-1.8-1.2-1.3-2.2l2.9-5.8c.1-.2,0-.6-.3-.7l-2.6-.9c-1.4-.5-3.7.6-3.7.6h0Z"/>
    <path class="cls-3" d="M112.8,33.5s13.6,19.3-3.1,42.9"/>
    <line class="cls-3" x1="104.5" y1="71.6" x2="121.3" y2="85.5"/>
    <path class="cls-3" d="M116.3,119.4l6.2,24.2h15.8s-3.3-18-8.1-53.9"/>
    <path class="cls-3" d="M118,107.3s-.8,18.2-9.8,36.2h-15.4s5.1-15.1,10.9-51.4"/>
    <line class="cls-3" x1="60.9" y1="32.3" x2="60.9" y2="35.8"/>
    <path class="cls-5" d="M63.1,139.6h-9.9c0-2.5,2-4.5,4.5-4.5h7.7v2.2c0,1.3-1,2.3-2.3,2.3Z"/>
    <path class="cls-5" d="M79.5,139.6h-9.9c0-2.5,2-4.5,4.5-4.5h7.7v2.2c0,1.3-1,2.3-2.3,2.3Z"/>
    <polygon class="cls-1" points="66.1 117 65.5 135 57.8 135 55 117 66.1 117"/>
    <path class="cls-1" d="M28,62.4h3.7c2.9,0,5-2.6,4.5-5.4l-1.4-7.9c-.8-4.5-4.2-8-8.7-9l-15.5-3.2L.6,84.5l36.1,4.7-5.9-26.9"/>
  </g>
</svg>