<?xml version="1.0" encoding="UTF-8"?><svg id="Layer_2" xmlns="http://www.w3.org/2000/svg" viewBox="0 0 71.7 52.63"><defs><style>.cls-1{fill:#000;stroke-width:0px;}.cls-2{fill:none;stroke:#000;stroke-miterlimit:10;}</style></defs><g id="Utensils"><path class="cls-1" d="M16.1,12.59c0-4.52-3.73-8.18-8.28-8.05C3.55,4.67.03,8.27,0,12.54c-.01,1.64.47,3.17,1.31,4.45,2.85,4.36,4.66,9.33,4.66,14.54v18.52c0,1.15.94,2.09,2.09,2.09h0c1.15,0,2.09-.94,2.09-2.09v-18.59c0-5.18,1.8-10.12,4.64-14.45.83-1.26,1.32-2.78,1.32-4.41Z"/><path class="cls-2" d="M71.2,12.59c0-4.52-3.73-8.18-8.28-8.05-4.26.12-7.79,3.73-7.82,7.99-.01,1.64.47,3.17,1.31,4.45,2.85,4.36,4.66,9.33,4.66,14.54v18.52c0,1.15.94,2.09,2.09,2.09h0c1.15,0,2.09-.94,2.09-2.09v-18.59c0-5.18,1.8-10.12,4.64-14.45.83-1.26,1.32-2.78,1.32-4.41Z"/><path class="cls-2" d="M45.87,10.57c0-5.69-4.72-10.28-10.47-10.06-5.28.2-9.6,4.64-9.68,9.92-.03,2.07.57,4,1.61,5.62,4.41,6.81,6.37,14.92,6.37,23.04v10.97c0,1.15.94,2.09,2.09,2.09h0c1.15,0,2.09-.94,2.09-2.09v-9.8c0-8.56,1.99-17.11,6.48-24.39.95-1.54,1.5-3.35,1.5-5.28Z"/><circle class="cls-2" cx="63.15" cy="12.79" r="5.2"/></g></svg>