<?xml version="1.0" encoding="UTF-8"?><svg id="Layer_2" xmlns="http://www.w3.org/2000/svg" viewBox="0 0 79.73 61.94"><defs><style>.cls-1{stroke-width:.93px;}.cls-1,.cls-2,.cls-3{fill:none;stroke:#000;stroke-miterlimit:10;}.cls-3{stroke-width:3px;}</style></defs><g id="Rain"><rect class="cls-2" x=".5" y=".5" width="78.5" height="60.94"/><line class="cls-2" x1="37.97" y1="36.33" x2="79" y2="5.83"/><path class="cls-3" d="M33.98,38.22l3.99-1.89c2.29-1.09,4.96-1.03,7.2.15h0c2.09,1.11,4.57,1.23,6.76.34l2.17-.88c2.12-.86,4.5-.77,6.55.24l.68.34c2.19,1.08,4.76,1.1,6.97.05l.45-.21c2.34-1.1,5.07-1.01,7.34.25l2.9,1.62"/><line class="cls-2" x1="57.44" y1="35.36" x2="79" y2="9.88"/><line class="cls-2" x1="73.48" y1="35.36" x2="79" y2="15.99"/><line class="cls-1" x1="5.99" y1="5.83" x2="5.99" y2="10.65"/><line class="cls-1" x1="9.74" y1="15.73" x2="9.74" y2="28.46"/><line class="cls-1" x1="5.99" y1="32.59" x2="5.99" y2="38.22"/><line class="cls-1" x1="9.74" y1="56.57" x2="9.74" y2="50.07"/><line class="cls-1" x1="15.56" y1="30.97" x2="15.56" y2="36.79"/><line class="cls-1" x1="15.56" y1="47.06" x2="15.56" y2="53.32"/><line class="cls-1" x1="22.5" y1="5.83" x2="22.5" y2="13.19"/><line class="cls-1" x1="22.5" y1="23.93" x2="22.5" y2="25.67"/><line class="cls-1" x1="22.5" y1="35.43" x2="22.5" y2="47.06"/><line class="cls-1" x1="22.5" y1="53.32" x2="22.5" y2="59.08"/><line class="cls-1" x1="15.56" y1="8.24" x2="15.56" y2="22.62"/><line class="cls-1" x1="26.82" y1="8.66" x2="26.82" y2="4.98"/><line class="cls-1" x1="30.57" y1="15.73" x2="30.57" y2="19.96"/><line class="cls-1" x1="26.82" y1="32.59" x2="26.82" y2="38.22"/><line class="cls-1" x1="30.57" y1="56.57" x2="30.57" y2="50.07"/><line class="cls-1" x1="36.39" y1="28.13" x2="36.39" y2="33.96"/><line class="cls-1" x1="36.39" y1="47.06" x2="36.39" y2="50.48"/><line class="cls-1" x1="43.34" y1="5.83" x2="43.34" y2="13.19"/><line class="cls-1" x1="43.34" y1="21.1" x2="43.34" y2="22.84"/><line class="cls-1" x1="43.34" y1="41.1" x2="43.34" y2="47.06"/><line class="cls-1" x1="43.34" y1="53.32" x2="43.34" y2="59.08"/><line class="cls-1" x1="36.39" y1="8.24" x2="36.39" y2="22.62"/><line class="cls-1" x1="48.68" y1="5.83" x2="48.68" y2="10.65"/><line class="cls-1" x1="52.44" y1="12.19" x2="52.44" y2="18.56"/><line class="cls-1" x1="48.68" y1="44.25" x2="48.68" y2="49.88"/><line class="cls-1" x1="52.44" y1="56.57" x2="52.44" y2="55.74"/><line class="cls-1" x1="58.26" y1="40.55" x2="58.26" y2="43.54"/><line class="cls-1" x1="58.26" y1="47.06" x2="58.26" y2="53.32"/><line class="cls-1" x1="65.2" y1="8.66" x2="65.2" y2="10.35"/><line class="cls-1" x1="65.2" y1="43.93" x2="65.2" y2="41.39"/><line class="cls-1" x1="65.2" y1="53.32" x2="65.2" y2="59.08"/><line class="cls-1" x1="58.26" y1="5.83" x2="58.26" y2="14.54"/><line class="cls-1" x1="69.52" y1="5.83" x2="69.52" y2="7.81"/><line class="cls-1" x1="69.52" y1="43.47" x2="69.52" y2="49.1"/><line class="cls-1" x1="73.27" y1="56.57" x2="73.27" y2="50.07"/></g></svg>