<?xml version="1.0" encoding="UTF-8"?><svg id="Layer_2" xmlns="http://www.w3.org/2000/svg" viewBox="0 0 85.28 118.27"><defs><style>.cls-1,.cls-2{fill:#000;}.cls-1,.cls-3,.cls-4{stroke:#000;stroke-miterlimit:10;}.cls-2{stroke-width:0px;}.cls-3{stroke-width:1.06px;}.cls-3,.cls-4{fill:none;}</style></defs><g id="Sipping"><line class="cls-4" x1="69.49" y1="109.68" x2="70.52" y2="112.04"/><line class="cls-4" x1="75.74" y1="106.39" x2="77.34" y2="110.03"/><path class="cls-2" d="M29.51,112.12h10.58c3.17,0,5.75,2.57,5.75,5.75h-12.77c-1.96,0-3.56-1.59-3.56-3.56v-2.19h0Z"/><path class="cls-2" d="M68.48,110.34h10.58c3.17,0,5.75,2.57,5.75,5.75h-12.77c-1.96,0-3.56-1.59-3.56-3.56v-2.19h0Z" transform="translate(-27.81 25) rotate(-15.72)"/><path class="cls-4" d="M39.23,30.54c-1.32-.26-2.6-.69-3.82-1.27l-3.7-1.76,7.33-15.4,3.7,1.76c2.34,1.11,4.38,2.76,5.95,4.81l2.91,3.79-2.58,5.43"/><path class="cls-4" d="M42.99,11.15l-1.1,2.31,1.48.7,1.32.75,1.33,1.02,1.3-2.72c.53-1.12.06-2.45-1.06-2.98l-.29-.14c-1.12-.53-2.45-.06-2.98,1.06Z"/><path class="cls-4" d="M25.59,4.58s1.69,3.02,5.25,6.08l2.43,1.95c1.31,1.05,1.32,3.05.02,4.11h0c-.96.78-1.24,2.13-.68,3.23l.07.14c.98,1.92.56,4.26-1.02,5.73h0c-1.17,1.09-2.78,1.58-4.36,1.34h0c-3.15-.49-6.03-2.1-8.09-4.53l-.41-.48"/><path class="cls-1" d="M18.52,19.41c-1.91-2.91-.15-3.83.44-3.56.8.36,1.75.21,2.4-.38.38-.35.39-.94.01-1.3l-1.35-1.27c-1.67-1.56-1.05-4.34,1.12-5.05l1.27-.41c1.42-.46,2.57-1.5,3.18-2.86.7-1.57-.17-3.4-1.84-3.83-2.04-.53-4.21-.2-6,.9,0,0-10.37,5.2-6.54,12.59,2.21,4.27,4.44,6.12,2.91,9.98,2.89,1.91,6.49-1.62,4.4-4.82Z"/><line class="cls-4" x1="27.07" y1="27.21" x2="27.07" y2="33.71"/><path class="cls-4" d="M23.96,25.91l19.82,49.63s-8.45,9.2-34.73,2.82c0,0-1.49-20.57,1.6-42.06.5-3.5,1.55-6.91,3.18-10.04.33-.63.66-1.21.99-1.68"/><path class="cls-2" d="M34.75,52.84c.69,1.72,1.85,2.71,3.08,3.26,2.32,1.05,5.06.59,7.07-.96,9.14-7.05,6.88-19.55,6.88-19.55h-11.26s.21,3.4-.28,6.39c0,0-3.1,4.14-12.01-5.51"/><path class="cls-3" d="M53.66,24.82l-.4-.23c-.67-.39-1.52-.2-1.97.42l-4.34,5.52,3.29-6.29c.37-.71.12-1.59-.58-2l-.31-.18c-.7-.4-1.59-.18-2.02.5l-3.85,5.79,2.85-6.64c.32-.7.05-1.53-.62-1.92l-.41-.24c-.69-.4-1.56-.19-2,.47l-3.17,4.78c-1.12,1.68-1.44,3.76-.9,5.71l1.42,5.07,9.2-.05,4.39-8.76c.36-.71.1-1.58-.59-1.97Z"/><path class="cls-4" d="M8.79,72.59L.93,44.52c-1.71-6.1,1.85-12.43,7.95-14.13l.6-.17c.76-.21,1.53-.34,2.29-.4"/><path class="cls-2" d="M36.82,79.18h7.9v6.99H8.12v-6.99h4.65s11.19,3.05,24.04,0Z"/><line class="cls-4" x1="43.14" y1="102.56" x2="50.46" y2="118.06"/><line class="cls-4" x1="18.8" y1="86.17" x2="3.74" y2="118.06"/><polyline class="cls-4" points="40.11 66.37 65.08 82.68 77.72 105.25 67.74 111.02 54.41 90.62 44.71 86.17"/><polyline class="cls-4" points="48.73 87.82 38.98 112.12 28.21 112.12 34.27 86.17"/></g></svg>