<?xml version="1.0" encoding="UTF-8"?><svg id="Layer_2" xmlns="http://www.w3.org/2000/svg" viewBox="0 0 102.5 159.65"><defs><style>.cls-1{fill:#000;stroke-width:0px;}.cls-2,.cls-3{fill:none;stroke:#000;stroke-miterlimit:10;}.cls-3{stroke-width:3px;}</style></defs><g id="Milk_Froth"><path class="cls-1" d="M93.88,99.54h-10.03v6.43h9.4s2.84-.22,2.84,2.5c0,5.93-3.78,20.44-4.34,21.61-.67,1.41-2.53,2.98-4.17,2.98h-3.72v6.43h4.34c4.36,0,7.44-1.55,9.37-6.86.38-1.05.65-2.14.87-3.23l3.86-19.34c.62-3.08-.33-6.35-2.72-8.4-1.54-1.32-3.53-2.11-5.71-2.11Z"/><rect class="cls-1" width="55.76" height="16.83"/><rect class="cls-2" x="21.2" y="16.83" width="12.32" height="20.32"/><polyline class="cls-2" points="33.09 37.4 63.41 89.91 51.67 89.93 21.2 37.15"/><rect class="cls-1" x="32.59" y="53.08" width="17.42" height="17.42" transform="translate(-25.36 28.93) rotate(-30)"/><path class="cls-2" d="M49.09,159.15h17.73c9.41,0,17.04-7.63,17.04-17.04v-52.17H30.19l2.68,4.27c2.26,3.59,3.24,7.84,2.81,12.06l-3.54,34.08c-1.04,10.05,6.84,18.8,16.95,18.8Z"/><line class="cls-3" x1="35.68" y1="106.27" x2="83.85" y2="106.27"/></g></svg>