<?xml version="1.0" encoding="UTF-8"?><svg id="Layer_2" xmlns="http://www.w3.org/2000/svg" viewBox="0 0 138.93 148.06"><defs><style>.cls-1{fill:#000;stroke-width:0px;}.cls-2,.cls-3,.cls-4{fill:none;stroke:#000;stroke-miterlimit:10;}.cls-3{stroke-width:.9px;}.cls-4{stroke-width:.83px;}</style></defs><g id="People_Chatter"><path class="cls-2" d="M27.73,11.82l6.99,11.34c.54.88.22,2.03-.7,2.5l-2.16,1.11c-.46.24-.67.77-.5,1.26l1.16,3.23c.56,1.56-.72,3.16-2.36,2.97l-9.1-1.05"/><line class="cls-2" x1="25.35" y1="33.68" x2="24.06" y2="39.68"/><line class="cls-2" x1="15.64" y1="32.25" x2="14.38" y2="38.11"/><path class="cls-1" d="M29.77,15.11l2.95-2.55c2.41-2.08,2.88-5.63,1.11-8.27l-.82-1.22C28.03-3.2,15.01,1.02,14.71,7.72h0c-.04,2.53-.41,4.41-2.26,5.64l-1.7,1.13c-2.17,1.44-3,4.23-1.97,6.63l1.24,2.86c.49,1.12.11,2.43-.9,3.13l-2.13,1.47s4.75,5.11,10.88,2.88c0,0,3.26-1.38,2.83-4.08-.29-1.77-3.84-3.8-3.37-5.65.39-1.56,3.08-2.24,3.35-3.65.48-2.48-3.35-3.05-.45-6.25,0,0,5.12-3.79,8.07.72l1.47,2.58Z"/><path class="cls-2" d="M28.03,62.37h3.71c2.85,0,5.01-2.57,4.52-5.37l-1.38-7.92c-.78-4.49-4.23-8.04-8.69-8.96l-15.54-3.19L.6,84.52l36.11,4.71-5.9-26.86"/><polyline class="cls-2" points="12.98 86.13 31.45 135.02 37.72 135.02 29.13 88.24"/><polygon class="cls-2" points="5.49 85.16 11.77 135.02 18.66 135.02 19.38 103.06 12.98 86.13 5.49 85.16"/><path class="cls-1" d="M31.45,135.02h7.66c2.5,0,4.53,2.03,4.53,4.53h-9.88c-1.27,0-2.31-1.03-2.31-2.31v-2.22h0Z"/><path class="cls-1" d="M11.87,135.02h7.66c2.5,0,4.53,2.03,4.53,4.53h-9.88c-1.27,0-2.31-1.03-2.31-2.31v-2.22h0Z"/><path class="cls-1" d="M92.26,143.53h9.88c0,2.5-2.03,4.53-4.53,4.53h-7.66v-2.22c0-1.27,1.03-2.31,2.31-2.31Z" transform="translate(192.09 291.58) rotate(-180)"/><path class="cls-1" d="M121.51,143.53h9.88c0,2.5-2.03,4.53-4.53,4.53h-7.66v-2.22c0-1.27,1.03-2.31,2.31-2.31Z" transform="translate(250.59 291.58) rotate(-180)"/><path class="cls-3" d="M55.44,12.84l-3.49,6c-.76,1.31-.19,2.87,1.32,3.62h0c.95.47,1.4,1.4,1.12,2.27l-.49,1.5c-.69,2.11.42,4.34,2.72,5.47h0c.71.35,1.53.54,2.36.54h5.82"/><path class="cls-1" d="M89.4,47.41c-4.73-10.78-20.8-26.05-20.81-26.05-1.87-2.5.53-6.27-3-9.8-3.54-3.54-7.92-4.88-9.8-3-1.88,1.88-.53,6.27,3,9.8,1.42,1.42,2.98,2.48,4.45,3.13.96.42,1.57,1.36,1.56,2.41-.06,7.67.54,21.7,5.09,32.08,6.59,15,13.56,19.02,18.94,16.66,5.38-2.36,7.14-10.22.56-25.22Z"/><path class="cls-2" d="M53.97,65.54h-2.67c-4.27,0-7.44-4-6.43-8.15,2.31-9.57,8.94-16.33,12.23-19.19,1.57-1.36,3.4-2.4,5.41-2.92,1.02-.26,1.87-.35,2.5-.35"/><path class="cls-2" d="M56.65,53.59s-3.5,4.84-3.5,23.43v40.01h33.99s2.28-22.83-4.65-44.57"/><polygon class="cls-2" points="82.49 117.04 81.8 135.02 74.14 135.02 71.39 117.04 82.49 117.04"/><path class="cls-4" d="M109.04,6.56c-.76.79-1.76,2.05-2.23,3.04l-5.4,11.45c-.44.83-.13,1.87.71,2.31h0c1.09.58,1.78,1.72,1.78,2.96h0c0,2.23,2.01,3.93,4.21,3.56l5.39-.62"/><path class="cls-1" d="M109.04,6.56c-.79-1.82.05-4.76,1.97-5.29l2.72-.75c2.24-.61,4.63-.11,6.44,1.35l5.45,4.41c1.49,1.21,2.22,3.12,1.91,5.01h0c-.46,2.83.19,5.73,1.81,8.09l.67.97c1.32,1.92,1.69,4.35.99,6.57h0c-.77,2.46-2.52,4.48-4.83,5.6h0c-3.11,1.51-6.8,1.14-9.56-.94l-3.12-2.35-.41-.46c-1.51-1.7-1.97-4.08-1.22-6.23h0s3.06-5.43,3.06-5.43c.4-.71-.1-1.59-.91-1.62h0c-1.13-.04-1.84-1.23-1.34-2.24l2.89-5.78c.13-.25,0-.56-.26-.65l-2.59-.91c-1.42-.5-3.67.62-3.67.62Z"/><path class="cls-2" d="M125.61,32.8s12.34,10.87,8.84,56.46l-35.13,3.28s1.09-39.31,9.65-62.76"/><path class="cls-2" d="M112.77,33.47s13.63,19.31-3.12,42.88"/><line class="cls-2" x1="104.54" y1="71.58" x2="121.29" y2="85.53"/><path class="cls-2" d="M116.28,119.36l6.25,24.16h15.8s-3.26-18.02-8.14-53.87"/><path class="cls-2" d="M118,107.31s-.8,18.24-9.77,36.22h-15.43s5.09-15.11,10.87-51.39"/><line class="cls-2" x1="60.91" y1="32.25" x2="60.91" y2="35.82"/><path class="cls-1" d="M55.55,135.02h9.88c0,2.5-2.03,4.53-4.53,4.53h-7.66v-2.22c0-1.27,1.03-2.31,2.31-2.31Z" transform="translate(118.68 274.58) rotate(-180)"/><path class="cls-1" d="M71.88,135.02h9.88c0,2.5-2.03,4.53-4.53,4.53h-7.66v-2.22c0-1.27,1.03-2.31,2.31-2.31Z" transform="translate(151.35 274.58) rotate(-180)"/><polygon class="cls-2" points="66.14 117 65.45 134.98 57.79 134.98 55.04 117 66.14 117"/></g></svg>