<?xml version="1.0" encoding="UTF-8"?><svg id="Layer_2" xmlns="http://www.w3.org/2000/svg" viewBox="0 0 78.5 50.89"><defs><style>.cls-1{fill:#000;stroke-width:0px;}</style></defs><g id="Fireplace"><path class="cls-1" d="M53.28,0h-28.07C11.29,0,0,11.29,0,25.21v25.67h25.08c-3.88-5.34-4.49-13.35-1.16-19.05,2.19-3.75,5.71-6.54,8.16-10.13,3.73-5.48,3.81-10.67,1.54-16.89,4.32,1.39,8.03,4.59,10.04,8.66,2.01,4.07,3.12,6.86,1.6,11.14-.64,1.8-1.59,3.53-1.75,5.44-.16,1.9.8,4.11,2.67,4.52,1.79.39,3.56-1.1,4.14-2.84.58-1.74.28-3.64-.03-5.44,3.71,3.28,5.69,8.42,5.13,13.34-.49,4.38-3.38,8.75-6.99,11.28h30.07v-25.67c0-13.93-11.29-25.21-25.21-25.21Z"/></g></svg>