<?xml version="1.0" encoding="UTF-8"?><svg id="Layer_2" xmlns="http://www.w3.org/2000/svg" viewBox="0 0 166.64 142.18"><defs><style>.cls-1{fill:#000;stroke-width:0px;}.cls-2,.cls-3{fill:none;stroke:#000;stroke-miterlimit:10;}.cls-3{stroke-width:3px;}</style></defs><g id="Grinder"><rect class="cls-1" x="61.23" y="42.58" width="105.41" height="21.27"/><polygon class="cls-2" points="141.44 141.68 85.91 141.68 67.54 63.85 159.81 63.85 141.44 141.68"/><path class="cls-3" d="M61.23,80.23c7.53,0,7.53,6,15.06,6s7.53-6,15.06-6,7.53,6,15.05,6,7.53-6,15.06-6,7.53,6,15.06,6,7.53-6,15.06-6,7.53,6,15.06,6"/><polygon class="cls-1" points="111.45 33.08 116.6 33.08 118.6 42.58 109.1 42.58 111.45 33.08"/><polygon class="cls-2" points="106.25 15.49 121.45 15.49 118.6 27.36 109.1 27.36 106.25 15.49"/><path class="cls-2" d="M16.58.5h0c5.86,0,10.2,5.45,8.89,11.16l-1.74,7.59h-14.31l-1.74-7.59C6.38,5.95,10.72.5,16.58.5Z"/><path class="cls-1" d="M140.46,27.33h-53.02c-1.55,0-3.08-.34-4.47-1.01l-13.74-6.52c-.95-.45-1.96-.61-2.94-.53H2.86c-1.58,0-2.86,1.28-2.86,2.86h0c0,1.58,1.28,2.86,2.86,2.86h61.49c1.55,0,3.08.34,4.47,1.01l13.74,6.52c.95.45,1.96.61,2.94.53h54.95v-5.72Z"/><path class="cls-1" d="M87.34,90.91c1.29,0,1.29-2,0-2s-1.29,2,0,2h0Z"/><path class="cls-1" d="M100.54,91.09c1.29,0,1.29-2,0-2s-1.29,2,0,2h0Z"/><path class="cls-1" d="M113.74,91.09c1.29,0,1.29-2,0-2s-1.29,2,0,2h0Z"/><path class="cls-1" d="M126.94,91.09c1.29,0,1.29-2,0-2s-1.29,2,0,2h0Z"/><path class="cls-1" d="M139.96,91.28c1.29,0,1.29-2,0-2s-1.29,2,0,2h0Z"/><path class="cls-1" d="M80.87,97.59c1.29,0,1.29-2,0-2s-1.29,2,0,2h0Z"/><path class="cls-1" d="M94.07,97.78c1.29,0,1.29-2,0-2s-1.29,2,0,2h0Z"/><path class="cls-1" d="M107.27,97.78c1.29,0,1.29-2,0-2s-1.29,2,0,2h0Z"/><path class="cls-1" d="M120.47,97.78c1.29,0,1.29-2,0-2s-1.29,2,0,2h0Z"/><path class="cls-1" d="M133.49,97.96c1.29,0,1.29-2,0-2s-1.29,2,0,2h0Z"/><path class="cls-1" d="M146.37,97.96c1.29,0,1.29-2,0-2s-1.29,2,0,2h0Z"/><path class="cls-1" d="M87.34,104.27c1.29,0,1.29-2,0-2s-1.29,2,0,2h0Z"/><path class="cls-1" d="M100.54,104.46c1.29,0,1.29-2,0-2s-1.29,2,0,2h0Z"/><path class="cls-1" d="M113.74,104.46c1.29,0,1.29-2,0-2s-1.29,2,0,2h0Z"/><path class="cls-1" d="M126.94,104.46c1.29,0,1.29-2,0-2s-1.29,2,0,2h0Z"/><path class="cls-1" d="M139.96,104.65c1.29,0,1.29-2,0-2s-1.29,2,0,2h0Z"/><path class="cls-1" d="M94.07,111.14c1.29,0,1.29-2,0-2s-1.29,2,0,2h0Z"/><path class="cls-1" d="M107.27,111.14c1.29,0,1.29-2,0-2s-1.29,2,0,2h0Z"/><path class="cls-1" d="M120.47,111.14c1.29,0,1.29-2,0-2s-1.29,2,0,2h0Z"/><path class="cls-1" d="M133.49,111.33c1.29,0,1.29-2,0-2s-1.29,2,0,2h0Z"/><path class="cls-1" d="M87.34,116.8c1.29,0,1.29-2,0-2s-1.29,2,0,2h0Z"/><path class="cls-1" d="M100.54,116.98c1.29,0,1.29-2,0-2s-1.29,2,0,2h0Z"/><path class="cls-1" d="M113.74,116.98c1.29,0,1.29-2,0-2s-1.29,2,0,2h0Z"/><path class="cls-1" d="M126.94,116.98c1.29,0,1.29-2,0-2s-1.29,2,0,2h0Z"/><path class="cls-1" d="M139.96,117.17c1.29,0,1.29-2,0-2s-1.29,2,0,2h0Z"/><path class="cls-1" d="M94.07,123.67c1.29,0,1.29-2,0-2s-1.29,2,0,2h0Z"/><path class="cls-1" d="M107.27,123.67c1.29,0,1.29-2,0-2s-1.29,2,0,2h0Z"/><path class="cls-1" d="M120.47,123.67c1.29,0,1.29-2,0-2s-1.29,2,0,2h0Z"/><path class="cls-1" d="M133.49,123.85c1.29,0,1.29-2,0-2s-1.29,2,0,2h0Z"/><path class="cls-1" d="M87.34,130.37c1.29,0,1.29-2,0-2s-1.29,2,0,2h0Z"/><path class="cls-1" d="M100.54,130.56c1.29,0,1.29-2,0-2s-1.29,2,0,2h0Z"/><path class="cls-1" d="M113.74,130.56c1.29,0,1.29-2,0-2s-1.29,2,0,2h0Z"/><path class="cls-1" d="M126.94,130.56c1.29,0,1.29-2,0-2s-1.29,2,0,2h0Z"/><path class="cls-1" d="M139.96,130.75c1.29,0,1.29-2,0-2s-1.29,2,0,2h0Z"/><path class="cls-1" d="M94.07,137.24c1.29,0,1.29-2,0-2s-1.29,2,0,2h0Z"/><path class="cls-1" d="M107.27,137.24c1.29,0,1.29-2,0-2s-1.29,2,0,2h0Z"/><path class="cls-1" d="M120.47,137.24c1.29,0,1.29-2,0-2s-1.29,2,0,2h0Z"/><path class="cls-1" d="M133.49,137.43c1.29,0,1.29-2,0-2s-1.29,2,0,2h0Z"/></g></svg>