<?xml version="1.0" encoding="UTF-8"?><svg id="Layer_2" xmlns="http://www.w3.org/2000/svg" viewBox="0 0 643.74 361.55"><defs><style>.cls-1{fill:#000;stroke-width:0px;}.cls-2,.cls-3,.cls-4{fill:none;stroke:#000;stroke-miterlimit:10;}.cls-3{stroke-width:3px;}.cls-4{stroke-width:.87px;}</style></defs><g id="Background2"><circle class="cls-2" cx="358.3" cy="172.98" r="5.52"/><circle class="cls-3" cx="252.23" cy="172.98" r="8.35"/><circle class="cls-2" cx="334.44" cy="172.98" r="5.52"/><rect class="cls-1" x="391.07" y="124.15" width="125.68" height="6.22"/><path class="cls-2" d="M281.62,65.88h-128.53c-14.27,0-26.8,9.48-30.69,23.2l-16.11,38.47v18.4h163.94"/><line class="cls-2" x1="298.96" y1="65.88" x2="289.69" y2="65.88"/><line class="cls-2" x1="327.39" y1="65.88" x2="307.01" y2="65.88"/><line class="cls-2" x1="343.74" y1="65.88" x2="336.45" y2="65.88"/><line class="cls-2" x1="368.4" y1="65.88" x2="352.85" y2="65.88"/><line class="cls-2" x1="389.02" y1="65.88" x2="385.88" y2="65.88"/><line class="cls-2" x1="430.21" y1="65.88" x2="406.44" y2="65.88"/><path class="cls-2" d="M304.44,145.95h243.3v-19.73l-16.11-37.15c-3.89-13.73-16.42-23.2-30.69-23.2h-3.81"/><line class="cls-2" x1="273.46" y1="145.95" x2="300.8" y2="145.95"/><line class="cls-4" x1="126.24" y1="305.1" x2="509.09" y2="305.1"/><line class="cls-4" x1="126.24" y1="273.22" x2="126.24" y2="284.2"/><line class="cls-4" x1="126.24" y1="213.21" x2="126.24" y2="226.88"/><line class="cls-4" x1="126.24" y1="174.31" x2="126.24" y2="198.4"/><polyline class="cls-2" points="269.82 145.95 126.24 145.95 126.24 167.46"/><polyline class="cls-2" points="525.54 236.22 525.54 145.95 304.44 145.95"/><path class="cls-2" d="M69.43,346.23h513.94l-16.8-35.61c-1.88-3.4-5.45-5.52-9.34-5.52H93.13c-4.09,0-7.83,2.34-9.61,6.03l-14.1,35.09Z"/><path class="cls-1" d="M497.14,346.23h50.6c0,8.45-6.86,15.32-15.32,15.32h-19.97c-8.45,0-15.32-6.86-15.32-15.32h0Z"/><path class="cls-1" d="M107.7,346.23h50.6c0,8.45-6.86,15.32-15.32,15.32h-19.97c-8.45,0-15.32-6.86-15.32-15.32h0Z"/><line class="cls-2" x1="479.89" y1="322.38" x2="177.22" y2="322.38"/><line class="cls-2" x1="479.89" y1="328.95" x2="177.22" y2="328.95"/><circle class="cls-2" cx="551.17" cy="327.04" r="4.66"/><circle class="cls-3" cx="110.45" cy="327.04" r="7.65"/><circle class="cls-2" cx="530.2" cy="327.04" r="4.66"/><circle class="cls-2" cx="509.09" cy="327.04" r="4.66"/><line class="cls-2" x1="155.41" y1="108.47" x2="134.64" y2="108.47"/><line class="cls-2" x1="182.17" y1="108.47" x2="160.04" y2="108.47"/><line class="cls-2" x1="210.51" y1="108.47" x2="188.94" y2="108.47"/><line class="cls-2" x1="237.74" y1="108.47" x2="215.13" y2="108.47"/><path class="cls-1" d="M525.54,156.71v36.04h118.2c0-13.96-11.32-25.29-25.29-25.29h-23.14c-6.6,0-11.95-5.35-11.95-11.95h0c0-13.88-11.25-25.14-25.14-25.14h-10.49v15.59h-22.2v10.75Z"/><path class="cls-1" d="M148.16,0h-34.54c-8.48,0-15.36,6.88-15.36,15.36h0c0,5.48-4.44,9.93-9.93,9.93h-42.52c-5.31,0-9.62,4.31-9.62,9.62h0c0,5.31,4.31,9.62,9.62,9.62h112.98"/><path class="cls-1" d="M70.77,104.92h0c0-3.75-3.04-6.8-6.8-6.8h-2.09c-7.43,0-7,5.59-7,5.59,0,2.3-1.86,2.74-4.16,2.74H5.27c-2.91,0-5.27,2.36-5.27,5.27h0c0,2.91,2.36,5.27,5.27,5.27h61.84s3.66,0,3.66,0h12.8c1.45,0,2.63-1.18,2.63-2.63h0c0-1.45-1.18-2.63-2.63-2.63h-6c-3.75,0-6.8-3.04-6.8-6.8Z"/><path class="cls-1" d="M528.16,36h0c0-3.75,3.04-6.8,6.8-6.8h2.09c7.2,0,7,5.59,7,5.59,0,2.3,1.86,2.74,4.16,2.74h36.95c2.91,0,5.27,2.36,5.27,5.27h0c0,2.91-2.36,5.27-5.27,5.27h-53.34s-3.66,0-3.66,0h-12.8c-1.45,0-2.63-1.18-2.63-2.63h0c0-1.45,1.18-2.63,2.63-2.63h6c3.75,0,6.8-3.04,6.8-6.8Z"/></g></svg>